<svg id="Layer_1" data-name="Layer 1" xmlns="http://www.w3.org/2000/svg" viewBox="0 0 638 272"><defs><style>.cls-1{fill:#c80000;}.cls-2{fill:#fff;}</style></defs><title>Java Logo Vector</title><rect class="cls-1" width="638" height="272"/><path class="cls-2" d="M469.29,564s-8.94,5.2,6.37,6.95c18.54,2.12,28,1.82,48.45-2A84.29,84.29,0,0,0,537,575.16C491.18,594.79,433.31,574,469.29,564" transform="translate(-181 -364)"/><path class="cls-2" d="M463.69,538.35s-10,7.42,5.29,9c19.81,2,35.45,2.21,62.52-3a27.61,27.61,0,0,0,9.63,5.87c-55.38,16.2-117.07,1.28-77.44-11.87" transform="translate(-181 -364)"/><path class="cls-2" d="M510.88,494.89c11.29,13-3,24.69-3,24.69s28.66-14.8,15.49-33.33c-12.29-17.27-21.72-25.86,29.32-55.46,0,0-80.11,20-41.85,64.1" transform="translate(-181 -364)"/><path class="cls-2" d="M571.47,582.91s6.61,5.46-7.29,9.68c-26.44,8-110,10.42-133.28.31-8.35-3.63,7.31-8.67,12.24-9.73a31.71,31.71,0,0,1,8.07-.9c-9.29-6.54-60,12.84-25.77,18.39,93.4,15.15,170.25-6.82,146-17.75" transform="translate(-181 -364)"/><path class="cls-2" d="M473.59,511.8s-42.53,10.1-15.06,13.77c11.6,1.55,34.72,1.2,56.26-.6,17.6-1.49,35.27-4.64,35.27-4.64a73.94,73.94,0,0,0-10.7,5.72c-43.18,11.36-126.62,6.07-102.6-5.54,20.32-9.82,36.83-8.71,36.83-8.71" transform="translate(-181 -364)"/><path class="cls-2" d="M549.88,554.45c43.91-22.82,23.61-44.74,9.44-41.79a34,34,0,0,0-5,1.35,8,8,0,0,1,3.75-2.89c28-9.86,49.58,29.06-9,44.48a3.83,3.83,0,0,0,.88-1.15" transform="translate(-181 -364)"/><path class="cls-2" d="M523.41,383s24.32,24.32-23.06,61.72c-38,30-8.66,47.11,0,66.65-22.18-20-38.45-37.62-27.53-54,16-24.06,60.41-35.73,50.6-74.36" transform="translate(-181 -364)"/><path class="cls-2" d="M477.91,616.26c42.14,2.7,106.85-1.49,108.38-21.43,0,0-2.95,7.56-34.83,13.56-36,6.77-80.33,6-106.64,1.64,0,0,5.39,4.46,33.09,6.23" transform="translate(-181 -364)"/></svg>